# xmcd
#
# Track frame offsets:
#	150
#	16337
#	27393
#	48792
#	66765
#	67052
#	142552
#	164101
#	181208
#	212283
#
# Disc length: 3579 seconds
# Revision: 0
# Processed by: cddbd v1.5.2PL0 Copyright (c) Steve Scherf et al.
# Submitted via: dBpowerAMP V12.0
#
DISCID=820df90a
DTITLE=Eric Clapton - Eric Clapton - Martin Scoreses Presents The Blues
DYEAR=2003
DGENRE=Blues
TTITLE0=John Mayall's Bluesbreakers_All Your Love
TTITLE1=John Mayall's Bluesbreakers_ Steppin' Out
TTITLE2=Cream_Rollin' and Tumblin
TTITLE3=Cream_I'm So Glad
TTITLE4=Cream_Spoonful (live)
TTITLE5=Blind Faith_Sleeping In The Ground
TTITLE6=Howlin' Wolf_Rockin' Daddy
TTITLE7=Derek and the Dominos_Have You Ever Loved A Woman
TTITLE8=Eric Clapton and Duane Allman_Mean Old World
TTITLE9=Derek and the Dominos_Crossroads (live)
EXTD=
EXTT0=
EXTT1=
EXTT2=
EXTT3=
EXTT4=
EXTT5=
EXTT6=
EXTT7=
EXTT8=
EXTT9=
PLAYORDER=
